<svg xmlns="http://www.w3.org/2000/svg" xml:space="preserve" id="Layer_1" style="enable-background:new 0 0 24 24" version="1.1" viewBox="0 0 24 24"><style>.st1{fill:none;stroke:#FFF;stroke-width:1.5;stroke-linecap:round;stroke-linejoin:round;stroke-miterlimit:10}</style><path d="M17.7 23.3H6.3c-1 0-1.7-.8-1.7-1.7v-15h14.8v14.9c0 1-.8 1.8-1.7 1.8zM20.4 6V4.2c0-.7-.6-1.3-1.3-1.3h-3.7L15 1.4c-.2-.4-.5-.6-1-.6h-4c-.4 0-.8.2-1 .6l-.4 1.4H4.9c-.7 0-1.3.6-1.3 1.3V6c0 .3.3.6.6.6h15.6c.4 0 .6-.3.6-.6zM8.8 10.2v9.5M12 10.2v9.5M15.2 10.2v9.5" class="st1"/></svg>
